<svg id="Слой_1" data-name="Слой 1" xmlns="http://www.w3.org/2000/svg" viewBox="0 0 716.09 166.26"><defs><style>.cls-1{font-size:239.39px;font-family:ErasITC-Bold, Eras Bold ITC;font-weight:700;letter-spacing:-0.05em;}.cls-1,.cls-3{fill:#42518c;}.cls-2{fill:#de4e46;}</style></defs><text class="cls-1" transform="translate(237.67 163.33) scale(0.89 1)">MED</text><polygon class="cls-2" points="237.19 100.89 162.68 100.89 163.68 66.54 238.19 66.54 237.19 100.89"/><path class="cls-3" d="M41.16,163.49q5.19-56.81,6.22-125.07L3,39.7l.52-13q.42-10.41.63-22.8,29.61.24,69,.24l19.75-.12h-10l12.55-.12L93.87,15.38q-.42,9.21-.57,15.23t-.16,9.09c-14.87-.85,3.87-1.28-5.78-1.28h4.7q-1.57,20.64-2.41,38.15-1.16,25.08-1.79,48.71t-.63,38.21q-17.08-.24-22.09-.23Q60.66,163.26,41.16,163.49Z"/><polygon class="cls-3" points="96.13 3.93 88.3 163.33 85.26 163.49 91.78 4.1 96.13 3.93"/><polygon class="cls-2" points="164.68 4.37 103.74 3.93 161.55 41.15 164.68 4.37"/></svg>